<svg width="222" height="48" viewBox="0 0 222 48" fill="none" xmlns="http://www.w3.org/2000/svg">
<g clip-path="url(#clip0_58_6278)">
<path d="M87.0763 10.1545H52.3923V17.8292H64.4433V37.6073H72.1241V17.8292H79.3918L87.0778 10.1545H87.0763Z" fill="white"/>
<path d="M93.9318 17.8277H115.832V10.153H91.2305L84.0503 17.2648V37.6035H115.832V29.9289H91.7311V27.6833H105.966V20.0702H91.7311L93.931 17.8246V17.8285L93.9318 17.8277Z" fill="white"/>
<path d="M150.755 24.4412V17.2671L143.576 10.1553H118.974V37.6081H126.655V31.556H140.765L143.075 33.8647V37.6089H150.756V30.6835L147.633 27.5631L150.756 24.4442V24.4427L150.755 24.4412ZM126.655 17.8277H140.453L143.075 20.4475V21.2577L140.453 23.9399H126.655V17.8254V17.8269V17.8277Z" fill="white"/>
<path d="M185.677 24.4412V17.2671L178.497 10.1553H153.895V37.6081H161.576V31.556H175.686L177.996 33.8647V37.6089H185.677V30.6835L182.554 27.5631L185.677 24.4442V24.4427V24.4412ZM161.576 17.8277H175.375L177.997 20.4475V21.2577L175.375 23.9399H161.576V17.8254V17.8269V17.8277Z" fill="white"/>
<path d="M211.107 10.1545H188.816V37.6073H196.434V31.5552H214.105V37.6073H221.785V20.8233L211.109 10.1545H211.107ZM207.922 17.8292L214.103 23.9437H196.432V17.8292H207.922Z" fill="white"/>
<path d="M43.9775 47.9551H9.4936C8.72758 47.9551 8.01405 47.5428 7.63066 46.8787L2.4914 37.9831C2.10801 37.319 2.10801 36.4944 2.4914 35.8304L19.6542 6.12283C20.0376 5.45951 20.7527 5.04645 21.5172 5.04645H31.7995C32.5663 5.04645 33.2791 5.45875 33.6625 6.12283L50.9029 35.9627C51.2863 36.6268 51.2863 37.4514 50.9029 38.1155L45.839 46.8795C45.4556 47.5436 44.7405 47.9559 43.976 47.9559H43.9775V47.9551ZM21.5172 5.52493C20.9216 5.52493 20.3655 5.84594 20.0665 6.36093L2.90371 36.0685C2.60475 36.5857 2.60475 37.2278 2.90371 37.7443L8.04295 46.6399C8.34191 47.1549 8.89722 47.4759 9.49284 47.4759H43.9768C44.5724 47.4759 45.1285 47.1549 45.4267 46.6399L50.4906 37.8759C50.7896 37.3594 50.7896 36.7173 50.4906 36.2001L33.2487 6.36017C32.9497 5.84518 32.3944 5.52417 31.798 5.52417H21.5157L21.5172 5.52493Z" fill="#DAFA00"/>
<path d="M51.3455 44.354L33.0827 12.7447L34.0982 10.9883L27.7654 0.0441284L26.7552 1.79297L26.7461 1.77852L8.45512 33.4319H6.35942L0.0593262 44.354H38.6868L39.7243 46.1485L52.377 46.1409L51.3448 44.3532L51.3455 44.354ZM33.5627 38.6427L30.5481 33.4266H21.1572L21.1831 33.3824H15.1964L16.1055 31.8367H22.0754L26.6997 23.8357L26.6906 23.819L29.7394 18.542L30.6249 20.1022L27.6308 25.2833L32.3357 33.4258L35.3572 38.6564L33.5619 38.6419L33.5627 38.6427Z" fill="#FF1633"/>
</g>
<defs>
<clipPath id="clip0_58_6278">
<rect width="221.819" height="48" fill="white"/>
</clipPath>
</defs>
</svg>
